<?xml version="1.0" encoding="utf-8"?>
<!-- Generator: Adobe Illustrator 24.3.0, SVG Export Plug-In . SVG Version: 6.00 Build 0)  -->
<svg version="1.1" id="Layer_1" xmlns="http://www.w3.org/2000/svg" xmlns:xlink="http://www.w3.org/1999/xlink" x="0px" y="0px"
	 viewBox="0 0 10 8" style="enable-background:new 0 0 10 8;" xml:space="preserve">
<style type="text/css">
	.st0{fill-rule:evenodd;clip-rule:evenodd;fill:#1BA4D9;}
</style>
<path id="Forma_1" class="st0" d="M0.1,4.4C0,4.2,0,4,0.1,3.8l0.5-0.6c0.1-0.1,0.4-0.2,0.5,0c0,0,0,0,0,0l0,0l2.1,2.4
	c0.1,0.1,0.2,0.1,0.3,0c0,0,0,0,0,0l5.2-5.6h0c0.1-0.1,0.4-0.2,0.5,0c0,0,0,0,0,0l0.5,0.6c0.2,0.2,0.2,0.4,0,0.6l0,0L3.7,7.9
	C3.6,8,3.4,8,3.2,7.9c0,0,0,0,0,0l-3-3.4L0.1,4.4z"/>
</svg>
