<?xml version="1.0" encoding="utf-8"?>
<!-- Generator: Adobe Illustrator 24.3.0, SVG Export Plug-In . SVG Version: 6.00 Build 0)  -->
<svg version="1.1" id="Layer_1" xmlns="http://www.w3.org/2000/svg" xmlns:xlink="http://www.w3.org/1999/xlink" x="0px" y="0px"
	 viewBox="0 0 10 19" style="enable-background:new 0 0 10 19;" xml:space="preserve">
<style type="text/css">
	.st0{fill-rule:evenodd;clip-rule:evenodd;fill:#FFFFFF;}
</style>
<path id="Forma_1" class="st0" d="M5,0C2.2,0,0,2.3,0,5.1v9.8c0,0.3,0.3,0.6,0.6,0.6c0.3,0,0.6-0.3,0.6-0.6c0,0,0,0,0,0V5.1
	C1.2,3.1,2.8,1.3,4.9,1.3C7,1.2,8.7,2.9,8.8,4.9c0,0.1,0,0.1,0,0.2v10.1c0,1.4-1.1,2.5-2.5,2.5c0,0,0,0,0,0c0,0,0,0,0,0
	c-1.4,0-2.5-1.2-2.5-2.5v-6c0-0.7,0.5-1.2,1.1-1.3S6.2,8.3,6.2,9c0,0.1,0,0.1,0,0.2v5.7c0,0.3,0.3,0.6,0.6,0.6
	c0.3,0,0.6-0.3,0.6-0.6c0,0,0,0,0,0V9.2c0-1.3-1-2.4-2.4-2.5s-2.4,1-2.5,2.4c0,0,0,0.1,0,0.1v6c0,2.1,1.6,3.8,3.7,3.8c0,0,0,0,0,0
	s0,0,0,0c2.1,0,3.7-1.7,3.7-3.8V5.1C10,2.3,7.8,0,5,0z"/>
</svg>
